<?xml version="1.0" standalone="no"?><!DOCTYPE svg PUBLIC "-//W3C//DTD SVG 1.1//EN" "http://www.w3.org/Graphics/SVG/1.1/DTD/svg11.dtd"><svg t="1774810802604" class="icon" viewBox="0 0 1024 1024" version="1.1" xmlns="http://www.w3.org/2000/svg" p-id="5629" xmlns:xlink="http://www.w3.org/1999/xlink" width="200" height="200"><path d="M509.170273 1022.494826C224.270931 1017.738476-3.732832 786.302916 0.903104 506.521167 5.53904 223.90969 239.5635-4.334901 520.007526 1.565381c282.430856 5.900282 503.87206 229.087488 503.149577 514.287865-0.662277 282.55127-236.914393 511.21731-513.98683 506.64158z" fill="#E4007F" p-id="5630"></path><path d="M512.60207 979.627469C252.869238 979.687676 42.325494 769.746002 43.047977 511.277516 43.770461 253.110066 254.856068 43.890875 514.287865 44.372531c256.662277 0.481656 466.844779 211.567262 466.724365 468.711194-0.180621 256.842897-210.603951 466.483537-468.41016 466.543744z" fill="#FFFFFF" p-id="5631"></path><path d="M443.424271 765.170273c0 23.902164-0.60207 47.864534 0.301035 71.706491 0.421449 11.920978-3.793039 15.111947-15.111948 14.750705-21.975541-0.78269-44.071496-0.662277-66.047036-0.060207-10.355597 0.301035-14.449671-2.76952-14.329257-13.727187 0.481656-49.068674-0.120414-98.197554 0.481656-147.266227 0.361242-28.116651 21.072437-48.165569 47.74412-47.864535 26.370649 0.240828 46.299153 20.590781 46.901223 48.827846 0.421449 24.504233 0 49.068674 0.060207 73.633114z" fill="#FFFFFF" p-id="5632"></path><path d="M932.84666 512.060207c0.120414 233.783631-188.267168 422.652869-421.388523 422.412041-231.796802-0.240828-420.003763-188.507996-420.365004-420.425211-0.301035-234.626529 185.497648-422.532455 419.883349-424.519285 231.555974-1.926623 421.749765 188.507996 421.870178 422.532455z" fill="#E4007F" p-id="5633"></path><path d="M286.524929 213.01223c2.107244 6.020696 8.368768 6.261524 12.824083 8.428974 60.62841 30.163688 121.377234 60.026341 182.126059 89.888994 5.900282 2.889934 10.716839 4.816557 10.716839 13.606773-0.361242 126.314205-0.240828 252.568203-0.301035 378.882408 0 1.866416-0.60207 3.793039-1.143932 6.863594-38.652869-11.981185-76.824083-23.661336-114.874883-35.582314-27.514581-8.549389-54.788335-18.001881-82.603951-25.648166-10.11477-2.76952-12.88429-6.74318-12.88429-16.978363 0.301035-139.800564 0.120414-279.661336 0.060207-419.4619h6.080903zM731.634995 213.01223c0.301035 4.997178 0.903104 9.934149 0.903105 14.931326 0.060207 134.261524-0.120414 268.462841 0.301035 402.724365 0.060207 11.258702-2.889934 16.075259-14.088429 19.687676-58.400753 18.543744-116.440263 38.291627-174.660396 57.557855-4.214487 1.38476-8.489182 2.408278-13.245531 3.732832 0-129.565381 0.120414-258.287865-0.240828-387.010348 0-7.826905 4.094073-9.753528 9.5127-12.523048 59.303857-30.585136 118.4873-61.290687 177.73095-92.056444 3.793039-1.98683 8.549389-2.528692 10.777046-6.923801 1.023518-0.120414 1.98683-0.120414 3.010348-0.120413z" fill="#FFFFFF" p-id="5634"></path><path d="M812.854186 739.341486c-87.480715 22.035748-175.5635 42.144873-262.201317 66.950141-35.522107 10.174976-66.408278 1.625588-98.980244-6.562558-76.342427-19.266228-152.805268-38.412041-229.328316-57.015993-8.489182-2.047037-11.198495-4.936971-11.138288-13.66698 0.240828-155.273754 0.240828-310.607714 0-465.881468 0-8.188147 1.746002-11.017874 10.536218-11.07808 29.682032-0.240828 29.682032-0.60207 29.682032 29.441204 0 135.285042 0.120414 270.509878-0.240828 405.79492-0.060207 10.957667 3.130762 15.292568 13.787394 18.242709 79.111947 22.156162 158.103481 45.034807 237.034807 67.973659 7.104421 2.047037 13.245532 2.047037 20.349953-0.060207 78.449671-22.878645 156.839135-45.697084 235.529633-67.672624 11.680151-3.251176 13.907808-8.549389 13.847602-19.687677-0.421449-139.258702-0.060207-278.517404-0.60207-417.776105-0.060207-13.064911 2.76952-18.062088 16.195673-16.255879 8.368768 1.143932 16.978363 0.120414 25.527751 0.060206v487.194732z" fill="#FFFFFF" p-id="5635"></path></svg>